  0
SECTION
  2
HEADER
  9
$ACADVER
  1
AC1009
  9
$INSBASE
 10
0.000000
 20
0.000000
  9
$LIMMIN
 10
-394.842111
 20
-522.216405
  9
$LIMMAX
 10
12305.157889
 20
12284.410305
  9
$EXTMIN
 10
-394.842111
 20
-522.216405
  9
$EXTMAX
 10
12305.157889
 20
12284.410305
  9
$ATTMODE
 70
0
  9
$LUNITS
 70
2
  9
$LUPREC
 70
3
  9
$THICKNESS
 40
0.731520
  0
ENDSEC
  0
SECTION
  2
TABLES
  0
TABLE
  2
LTYPE
 70
1
  0
LTYPE
  3
Solid Line
  2
CONTINUOUS
 70
0
 72
65
 73
0
 40
0.000000
  0
ENDTAB
  0
TABLE
  2
LAYER
 70
5
  0
LAYER
  2
TEST
 70
0
 62
1
  6
CONTINUOUS
  0
LAYER
  2
TEST
 70
0
 62
2
  6
CONTINUOUS
  0
LAYER
  2
TEST
 70
0
 62
3
  6
CONTINUOUS
  0
LAYER
  2
TEST
 70
0
 62
4
  6
CONTINUOUS
  0
LAYER
  2
TEST
 70
0
 62
5
  6
CONTINUOUS
  0
ENDTAB
  0
TABLE
  2
STYLE
 70
1
  0
STYLE
  2
STANDARD
 70
0
 40
0.000000
 41
1.000000
 50
0.000000
 71
0
 42
0.200000
  3
txt
  0
ENDTAB
  0
ENDSEC
  0
SECTION
  2
BLOCKS
  0
BLOCK
  8
0
  2
FIGURE_CIRCLE
 70
0
 10
0.000000
 20
0.000000
  0
CIRCLE
  8
0
 10
0.000000
 20
0.000000
 40
0.500000
  0
ENDBLK
  0
BLOCK
  8
0
  2
FIGURE_SQUARE
 70
0
 10
0.000000
 20
0.000000
  0
POLYLINE
  8
0
 66
1
 70
1
 40
0.000000
 41
0.000000
 39
0.000000
  0
VERTEX
  8
0
 10
-0.500000
 20
-0.500000
 40
0.000000
 41
0.000000
 42
0.000000
  0
VERTEX
  8
0
 10
-0.500000
 20
0.500000
 40
0.000000
 41
0.000000
 42
0.000000
  0
VERTEX
  8
0
 10
0.500000
 20
0.500000
 40
0.000000
 41
0.000000
 42
0.000000
  0
VERTEX
  8
0
 10
0.500000
 20
-0.500000
 40
0.000000
 41
0.000000
 42
0.000000
  0
SEQEND
  0
ENDBLK
  0
BLOCK
  8
0
  2
FIGURE_HEX
 70
0
 10
0.000000
 20
0.000000
  0
POLYLINE
  8
0
 66
1
 70
1
 40
0.000000
 41
0.000000
 39
0.000000
  0
VERTEX
  8
0
 10
-0.500000
 20
0.000000
 40
0.000000
 41
0.000000
 42
0.000000
  0
VERTEX
  8
0
 10
-0.250000
 20
0.500000
 40
0.000000
 41
0.000000
 42
0.000000
  0
VERTEX
  8
0
 10
0.250000
 20
0.500000
 40
0.000000
 41
0.000000
 42
0.000000
  0
VERTEX
  8
0
 10
0.500000
 20
0.000000
 40
0.000000
 41
0.000000
 42
0.000000
  0
VERTEX
  8
0
 10
0.250000
 20
-0.500000
 40
0.000000
 41
0.000000
 42
0.000000
  0
VERTEX
  8
0
 10
-0.250000
 20
-0.500000
 40
0.000000
 41
0.000000
 42
0.000000
  0
SEQEND
  0
ENDBLK
  0
BLOCK
  8
0
  2
FIGURE_OCT
 70
0
 10
0.000000
 20
0.000000
  0
POLYLINE
  8
0
 66
1
 70
1
 40
0.000000
 41
0.000000
 39
0.000000
  0
VERTEX
  8
0
 10
-0.500000
 20
-0.207100
 40
0.000000
 41
0.000000
 42
0.000000
  0
VERTEX
  8
0
 10
-0.500000
 20
0.207100
 40
0.000000
 41
0.000000
 42
0.000000
  0
VERTEX
  8
0
 10
-0.207100
 20
0.500000
 40
0.000000
 41
0.000000
 42
0.000000
  0
VERTEX
  8
0
 10
0.207100
 20
0.500000
 40
0.000000
 41
0.000000
 42
0.000000
  0
VERTEX
  8
0
 10
0.500000
 20
0.207100
 40
0.000000
 41
0.000000
 42
0.000000
  0
VERTEX
  8
0
 10
0.500000
 20
-0.207100
 40
0.000000
 41
0.000000
 42
0.000000
  0
VERTEX
  8
0
 10
0.207100
 20
-0.500000
 40
0.000000
 41
0.000000
 42
0.000000
  0
VERTEX
  8
0
 10
-0.207100
 20
-0.500000
 40
0.000000
 41
0.000000
 42
0.000000
  0
SEQEND
  0
ENDBLK
  0
BLOCK
  8
0
  2
FIGURE_OBLONG
 70
0
 10
0.000000
 20
0.000000
  0
POLYLINE
  8
0
 66
1
 70
1
 40
0.000000
 41
0.000000
 39
0.000000
  0
VERTEX
  8
0
 10
-0.500000
 20
-0.125000
 40
0.000000
 41
0.000000
 42
0.000000
  0
VERTEX
  8
0
 10
-0.500000
 20
0.125000
 40
0.000000
 41
0.000000
 42
0.000000
  0
VERTEX
  8
0
 10
-0.416000
 20
0.375000
 40
0.000000
 41
0.000000
 42
0.000000
  0
VERTEX
  8
0
 10
-0.250000
 20
0.500000
 40
0.000000
 41
0.000000
 42
0.000000
  0
VERTEX
  8
0
 10
0.250000
 20
0.500000
 40
0.000000
 41
0.000000
 42
0.000000
  0
VERTEX
  8
0
 10
0.416000
 20
0.375000
 40
0.000000
 41
0.000000
 42
0.000000
  0
VERTEX
  8
0
 10
0.500000
 20
0.125000
 40
0.000000
 41
0.000000
 42
0.000000
  0
VERTEX
  8
0
 10
0.500000
 20
-0.125000
 40
0.000000
 41
0.000000
 42
0.000000
  0
VERTEX
  8
0
 10
0.416000
 20
-0.375000
 40
0.000000
 41
0.000000
 42
0.000000
  0
VERTEX
  8
0
 10
0.250000
 20
-0.500000
 40
0.000000
 41
0.000000
 42
0.000000
  0
VERTEX
  8
0
 10
-0.250000
 20
-0.500000
 40
0.000000
 41
0.000000
 42
0.000000
  0
VERTEX
  8
0
 10
-0.416000
 20
-0.375000
 40
0.000000
 41
0.000000
 42
0.000000
  0
SEQEND
  0
ENDBLK
  0
BLOCK
  8
0
  2
FIGURE_TRI
 70
0
 10
0.000000
 20
0.000000
  0
POLYLINE
  8
0
 66
1
 70
1
 40
0.000000
 41
0.000000
 39
0.000000
  0
VERTEX
  8
0
 10
-0.500000
 20
-0.500000
 40
0.000000
 41
0.000000
 42
0.000000
  0
VERTEX
  8
0
 10
0.000000
 20
0.500000
 40
0.000000
 41
0.000000
 42
0.000000
  0
VERTEX
  8
0
 10
0.500000
 20
-0.500000
 40
0.000000
 41
0.000000
 42
0.000000
  0
SEQEND
  0
ENDBLK
  0
BLOCK
  8
0
  2
FIGURE_CROSS
 70
0
 10
0.000000
 20
0.000000
  0
POLYLINE
  8
0
 66
1
 70
0
 40
0.000000
 41
0.000000
 39
0.000000
  0
VERTEX
  8
0
 10
-0.500000
 20
0.000000
 40
0.000000
 41
0.000000
 42
0.000000
  0
VERTEX
  8
0
 10
0.500000
 20
0.000000
 40
0.000000
 41
0.000000
 42
0.000000
  0
SEQEND
  0
POLYLINE
  8
0
 66
1
 70
0
 40
0.000000
 41
0.000000
 39
0.000000
  0
VERTEX
  8
0
 10
0.000000
 20
0.500000
 40
0.000000
 41
0.000000
 42
0.000000
  0
VERTEX
  8
0
 10
0.000000
 20
-0.500000
 40
0.000000
 41
0.000000
 42
0.000000
  0
SEQEND
  0
ENDBLK
  0
BLOCK
  8
0
  2
FIGURE_DIAMOND
 70
0
 10
0.000000
 20
0.000000
  0
POLYLINE
  8
0
 66
1
 70
1
 40
0.000000
 41
0.000000
 39
0.000000
  0
VERTEX
  8
0
 10
-0.500000
 20
0.000000
 40
0.000000
 41
0.000000
 42
0.000000
  0
VERTEX
  8
0
 10
0.000000
 20
0.500000
 40
0.000000
 41
0.000000
 42
0.000000
  0
VERTEX
  8
0
 10
0.500000
 20
0.000000
 40
0.000000
 41
0.000000
 42
0.000000
  0
VERTEX
  8
0
 10
0.000000
 20
-0.500000
 40
0.000000
 41
0.000000
 42
0.000000
  0
SEQEND
  0
ENDBLK
  0
ENDSEC
  0
SECTION
  2
ENTITIES
  0
POLYLINE
  8
TEST
 66
1
 70
1
 40
0.000000
 41
0.000000
 39
0.000000
  0
VERTEX
  8
TEST
 10
-0.739991
 20
18.050002
 40
0.000000
 41
0.000000
 42
0.000000
  0
VERTEX
  8
TEST
 10
0.760006
 20
18.050002
 40
0.000000
 41
0.000000
 42
0.000000
  0
VERTEX
  8
TEST
 10
0.760006
 20
17.190009
 40
0.000000
 41
0.000000
 42
0.000000
  0
VERTEX
  8
TEST
 10
-0.739991
 20
17.190009
 40
0.000000
 41
0.000000
 42
0.000000
  0
SEQEND
  0
POLYLINE
  8
TEST
 66
1
 70
1
 40
0.000000
 41
0.000000
 39
0.000000
  0
VERTEX
  8
TEST
 10
-0.739991
 20
16.780002
 40
0.000000
 41
0.000000
 42
0.000000
  0
VERTEX
  8
TEST
 10
0.760006
 20
16.780002
 40
0.000000
 41
0.000000
 42
0.000000
  0
VERTEX
  8
TEST
 10
0.760006
 20
15.920009
 40
0.000000
 41
0.000000
 42
0.000000
  0
VERTEX
  8
TEST
 10
-0.739991
 20
15.920009
 40
0.000000
 41
0.000000
 42
0.000000
  0
SEQEND
  0
POLYLINE
  8
TEST
 66
1
 70
1
 40
0.000000
 41
0.000000
 39
0.000000
  0
VERTEX
  8
TEST
 10
-0.739991
 20
15.510002
 40
0.000000
 41
0.000000
 42
0.000000
  0
VERTEX
  8
TEST
 10
0.760006
 20
15.510002
 40
0.000000
 41
0.000000
 42
0.000000
  0
VERTEX
  8
TEST
 10
0.760006
 20
14.650009
 40
0.000000
 41
0.000000
 42
0.000000
  0
VERTEX
  8
TEST
 10
-0.739991
 20
14.650009
 40
0.000000
 41
0.000000
 42
0.000000
  0
SEQEND
  0
POLYLINE
  8
TEST
 66
1
 70
1
 40
0.000000
 41
0.000000
 39
0.000000
  0
VERTEX
  8
TEST
 10
-0.739991
 20
14.240002
 40
0.000000
 41
0.000000
 42
0.000000
  0
VERTEX
  8
TEST
 10
0.760006
 20
14.240002
 40
0.000000
 41
0.000000
 42
0.000000
  0
VERTEX
  8
TEST
 10
0.760006
 20
13.380009
 40
0.000000
 41
0.000000
 42
0.000000
  0
VERTEX
  8
TEST
 10
-0.739991
 20
13.380009
 40
0.000000
 41
0.000000
 42
0.000000
  0
SEQEND
  0
POLYLINE
  8
TEST
 66
1
 70
1
 40
0.000000
 41
0.000000
 39
0.000000
  0
VERTEX
  8
TEST
 10
-0.739991
 20
12.970002
 40
0.000000
 41
0.000000
 42
0.000000
  0
VERTEX
  8
TEST
 10
0.760006
 20
12.970002
 40
0.000000
 41
0.000000
 42
0.000000
  0
VERTEX
  8
TEST
 10
0.760006
 20
12.110009
 40
0.000000
 41
0.000000
 42
0.000000
  0
VERTEX
  8
TEST
 10
-0.739991
 20
12.110009
 40
0.000000
 41
0.000000
 42
0.000000
  0
SEQEND
  0
POLYLINE
  8
TEST
 66
1
 70
1
 40
0.000000
 41
0.000000
 39
0.000000
  0
VERTEX
  8
TEST
 10
-0.739991
 20
11.700002
 40
0.000000
 41
0.000000
 42
0.000000
  0
VERTEX
  8
TEST
 10
0.760006
 20
11.700002
 40
0.000000
 41
0.000000
 42
0.000000
  0
VERTEX
  8
TEST
 10
0.760006
 20
10.840009
 40
0.000000
 41
0.000000
 42
0.000000
  0
VERTEX
  8
TEST
 10
-0.739991
 20
10.840009
 40
0.000000
 41
0.000000
 42
0.000000
  0
SEQEND
  0
POLYLINE
  8
TEST
 66
1
 70
1
 40
0.000000
 41
0.000000
 39
0.000000
  0
VERTEX
  8
TEST
 10
-0.739991
 20
10.430002
 40
0.000000
 41
0.000000
 42
0.000000
  0
VERTEX
  8
TEST
 10
0.760006
 20
10.430002
 40
0.000000
 41
0.000000
 42
0.000000
  0
VERTEX
  8
TEST
 10
0.760006
 20
9.570009
 40
0.000000
 41
0.000000
 42
0.000000
  0
VERTEX
  8
TEST
 10
-0.739991
 20
9.570009
 40
0.000000
 41
0.000000
 42
0.000000
  0
SEQEND
  0
POLYLINE
  8
TEST
 66
1
 70
1
 40
0.000000
 41
0.000000
 39
0.000000
  0
VERTEX
  8
TEST
 10
-0.739991
 20
9.160002
 40
0.000000
 41
0.000000
 42
0.000000
  0
VERTEX
  8
TEST
 10
0.760006
 20
9.160002
 40
0.000000
 41
0.000000
 42
0.000000
  0
VERTEX
  8
TEST
 10
0.760006
 20
8.300009
 40
0.000000
 41
0.000000
 42
0.000000
  0
VERTEX
  8
TEST
 10
-0.739991
 20
8.300009
 40
0.000000
 41
0.000000
 42
0.000000
  0
SEQEND
  0
POLYLINE
  8
TEST
 66
1
 70
1
 40
0.000000
 41
0.000000
 39
0.000000
  0
VERTEX
  8
TEST
 10
-0.739991
 20
7.890002
 40
0.000000
 41
0.000000
 42
0.000000
  0
VERTEX
  8
TEST
 10
0.760006
 20
7.890002
 40
0.000000
 41
0.000000
 42
0.000000
  0
VERTEX
  8
TEST
 10
0.760006
 20
7.030009
 40
0.000000
 41
0.000000
 42
0.000000
  0
VERTEX
  8
TEST
 10
-0.739991
 20
7.030009
 40
0.000000
 41
0.000000
 42
0.000000
  0
SEQEND
  0
POLYLINE
  8
TEST
 66
1
 70
1
 40
0.000000
 41
0.000000
 39
0.000000
  0
VERTEX
  8
TEST
 10
-0.739991
 20
6.620002
 40
0.000000
 41
0.000000
 42
0.000000
  0
VERTEX
  8
TEST
 10
0.760006
 20
6.620002
 40
0.000000
 41
0.000000
 42
0.000000
  0
VERTEX
  8
TEST
 10
0.760006
 20
5.760009
 40
0.000000
 41
0.000000
 42
0.000000
  0
VERTEX
  8
TEST
 10
-0.739991
 20
5.760009
 40
0.000000
 41
0.000000
 42
0.000000
  0
SEQEND
  0
POLYLINE
  8
TEST
 66
1
 70
1
 40
0.000000
 41
0.000000
 39
0.000000
  0
VERTEX
  8
TEST
 10
-0.739991
 20
5.350002
 40
0.000000
 41
0.000000
 42
0.000000
  0
VERTEX
  8
TEST
 10
0.760006
 20
5.350002
 40
0.000000
 41
0.000000
 42
0.000000
  0
VERTEX
  8
TEST
 10
0.760006
 20
4.490009
 40
0.000000
 41
0.000000
 42
0.000000
  0
VERTEX
  8
TEST
 10
-0.739991
 20
4.490009
 40
0.000000
 41
0.000000
 42
0.000000
  0
SEQEND
  0
POLYLINE
  8
TEST
 66
1
 70
1
 40
0.000000
 41
0.000000
 39
0.000000
  0
VERTEX
  8
TEST
 10
-0.739991
 20
4.080002
 40
0.000000
 41
0.000000
 42
0.000000
  0
VERTEX
  8
TEST
 10
0.760006
 20
4.080002
 40
0.000000
 41
0.000000
 42
0.000000
  0
VERTEX
  8
TEST
 10
0.760006
 20
3.220009
 40
0.000000
 41
0.000000
 42
0.000000
  0
VERTEX
  8
TEST
 10
-0.739991
 20
3.220009
 40
0.000000
 41
0.000000
 42
0.000000
  0
SEQEND
  0
POLYLINE
  8
TEST
 66
1
 70
1
 40
0.000000
 41
0.000000
 39
0.000000
  0
VERTEX
  8
TEST
 10
-0.739991
 20
2.810002
 40
0.000000
 41
0.000000
 42
0.000000
  0
VERTEX
  8
TEST
 10
0.760006
 20
2.810002
 40
0.000000
 41
0.000000
 42
0.000000
  0
VERTEX
  8
TEST
 10
0.760006
 20
1.950009
 40
0.000000
 41
0.000000
 42
0.000000
  0
VERTEX
  8
TEST
 10
-0.739991
 20
1.950009
 40
0.000000
 41
0.000000
 42
0.000000
  0
SEQEND
  0
POLYLINE
  8
TEST
 66
1
 70
1
 40
0.000000
 41
0.000000
 39
0.000000
  0
VERTEX
  8
TEST
 10
1.329995
 20
-0.760019
 40
0.000000
 41
0.000000
 42
0.000000
  0
VERTEX
  8
TEST
 10
1.329995
 20
0.739978
 40
0.000000
 41
0.000000
 42
0.000000
  0
VERTEX
  8
TEST
 10
2.189988
 20
0.739978
 40
0.000000
 41
0.000000
 42
0.000000
  0
VERTEX
  8
TEST
 10
2.189988
 20
-0.760019
 40
0.000000
 41
0.000000
 42
0.000000
  0
SEQEND
  0
POLYLINE
  8
TEST
 66
1
 70
1
 40
0.000000
 41
0.000000
 39
0.000000
  0
VERTEX
  8
TEST
 10
2.599995
 20
-0.760019
 40
0.000000
 41
0.000000
 42
0.000000
  0
VERTEX
  8
TEST
 10
2.599995
 20
0.739978
 40
0.000000
 41
0.000000
 42
0.000000
  0
VERTEX
  8
TEST
 10
3.459988
 20
0.739978
 40
0.000000
 41
0.000000
 42
0.000000
  0
VERTEX
  8
TEST
 10
3.459988
 20
-0.760019
 40
0.000000
 41
0.000000
 42
0.000000
  0
SEQEND
  0
POLYLINE
  8
TEST
 66
1
 70
1
 40
0.000000
 41
0.000000
 39
0.000000
  0
VERTEX
  8
TEST
 10
3.869995
 20
-0.760019
 40
0.000000
 41
0.000000
 42
0.000000
  0
VERTEX
  8
TEST
 10
3.869995
 20
0.739978
 40
0.000000
 41
0.000000
 42
0.000000
  0
VERTEX
  8
TEST
 10
4.729988
 20
0.739978
 40
0.000000
 41
0.000000
 42
0.000000
  0
VERTEX
  8
TEST
 10
4.729988
 20
-0.760019
 40
0.000000
 41
0.000000
 42
0.000000
  0
SEQEND
  0
POLYLINE
  8
TEST
 66
1
 70
1
 40
0.000000
 41
0.000000
 39
0.000000
  0
VERTEX
  8
TEST
 10
5.139995
 20
-0.760019
 40
0.000000
 41
0.000000
 42
0.000000
  0
VERTEX
  8
TEST
 10
5.139995
 20
0.739978
 40
0.000000
 41
0.000000
 42
0.000000
  0
VERTEX
  8
TEST
 10
5.999988
 20
0.739978
 40
0.000000
 41
0.000000
 42
0.000000
  0
VERTEX
  8
TEST
 10
5.999988
 20
-0.760019
 40
0.000000
 41
0.000000
 42
0.000000
  0
SEQEND
  0
POLYLINE
  8
TEST
 66
1
 70
1
 40
0.000000
 41
0.000000
 39
0.000000
  0
VERTEX
  8
TEST
 10
6.409995
 20
-0.760019
 40
0.000000
 41
0.000000
 42
0.000000
  0
VERTEX
  8
TEST
 10
6.409995
 20
0.739978
 40
0.000000
 41
0.000000
 42
0.000000
  0
VERTEX
  8
TEST
 10
7.269988
 20
0.739978
 40
0.000000
 41
0.000000
 42
0.000000
  0
VERTEX
  8
TEST
 10
7.269988
 20
-0.760019
 40
0.000000
 41
0.000000
 42
0.000000
  0
SEQEND
  0
POLYLINE
  8
TEST
 66
1
 70
1
 40
0.000000
 41
0.000000
 39
0.000000
  0
VERTEX
  8
TEST
 10
7.679995
 20
-0.760019
 40
0.000000
 41
0.000000
 42
0.000000
  0
VERTEX
  8
TEST
 10
7.679995
 20
0.739978
 40
0.000000
 41
0.000000
 42
0.000000
  0
VERTEX
  8
TEST
 10
8.539988
 20
0.739978
 40
0.000000
 41
0.000000
 42
0.000000
  0
VERTEX
  8
TEST
 10
8.539988
 20
-0.760019
 40
0.000000
 41
0.000000
 42
0.000000
  0
SEQEND
  0
POLYLINE
  8
TEST
 66
1
 70
1
 40
0.000000
 41
0.000000
 39
0.000000
  0
VERTEX
  8
TEST
 10
8.949995
 20
-0.760019
 40
0.000000
 41
0.000000
 42
0.000000
  0
VERTEX
  8
TEST
 10
8.949995
 20
0.739978
 40
0.000000
 41
0.000000
 42
0.000000
  0
VERTEX
  8
TEST
 10
9.809988
 20
0.739978
 40
0.000000
 41
0.000000
 42
0.000000
  0
VERTEX
  8
TEST
 10
9.809988
 20
-0.760019
 40
0.000000
 41
0.000000
 42
0.000000
  0
SEQEND
  0
POLYLINE
  8
TEST
 66
1
 70
1
 40
0.000000
 41
0.000000
 39
0.000000
  0
VERTEX
  8
TEST
 10
10.219995
 20
-0.760019
 40
0.000000
 41
0.000000
 42
0.000000
  0
VERTEX
  8
TEST
 10
10.219995
 20
0.739978
 40
0.000000
 41
0.000000
 42
0.000000
  0
VERTEX
  8
TEST
 10
11.079988
 20
0.739978
 40
0.000000
 41
0.000000
 42
0.000000
  0
VERTEX
  8
TEST
 10
11.079988
 20
-0.760019
 40
0.000000
 41
0.000000
 42
0.000000
  0
SEQEND
  0
POLYLINE
  8
TEST
 66
1
 70
1
 40
0.000000
 41
0.000000
 39
0.000000
  0
VERTEX
  8
TEST
 10
11.489995
 20
-0.760019
 40
0.000000
 41
0.000000
 42
0.000000
  0
VERTEX
  8
TEST
 10
11.489995
 20
0.739978
 40
0.000000
 41
0.000000
 42
0.000000
  0
VERTEX
  8
TEST
 10
12.349988
 20
0.739978
 40
0.000000
 41
0.000000
 42
0.000000
  0
VERTEX
  8
TEST
 10
12.349988
 20
-0.760019
 40
0.000000
 41
0.000000
 42
0.000000
  0
SEQEND
  0
POLYLINE
  8
TEST
 66
1
 70
1
 40
0.000000
 41
0.000000
 39
0.000000
  0
VERTEX
  8
TEST
 10
12.759995
 20
-0.760019
 40
0.000000
 41
0.000000
 42
0.000000
  0
VERTEX
  8
TEST
 10
12.759995
 20
0.739978
 40
0.000000
 41
0.000000
 42
0.000000
  0
VERTEX
  8
TEST
 10
13.619988
 20
0.739978
 40
0.000000
 41
0.000000
 42
0.000000
  0
VERTEX
  8
TEST
 10
13.619988
 20
-0.760019
 40
0.000000
 41
0.000000
 42
0.000000
  0
SEQEND
  0
POLYLINE
  8
TEST
 66
1
 70
1
 40
0.000000
 41
0.000000
 39
0.000000
  0
VERTEX
  8
TEST
 10
14.029995
 20
-0.760019
 40
0.000000
 41
0.000000
 42
0.000000
  0
VERTEX
  8
TEST
 10
14.029995
 20
0.739978
 40
0.000000
 41
0.000000
 42
0.000000
  0
VERTEX
  8
TEST
 10
14.889988
 20
0.739978
 40
0.000000
 41
0.000000
 42
0.000000
  0
VERTEX
  8
TEST
 10
14.889988
 20
-0.760019
 40
0.000000
 41
0.000000
 42
0.000000
  0
SEQEND
  0
POLYLINE
  8
TEST
 66
1
 70
1
 40
0.000000
 41
0.000000
 39
0.000000
  0
VERTEX
  8
TEST
 10
15.299995
 20
-0.760019
 40
0.000000
 41
0.000000
 42
0.000000
  0
VERTEX
  8
TEST
 10
15.299995
 20
0.739978
 40
0.000000
 41
0.000000
 42
0.000000
  0
VERTEX
  8
TEST
 10
16.159988
 20
0.739978
 40
0.000000
 41
0.000000
 42
0.000000
  0
VERTEX
  8
TEST
 10
16.159988
 20
-0.760019
 40
0.000000
 41
0.000000
 42
0.000000
  0
SEQEND
  0
POLYLINE
  8
TEST
 66
1
 70
1
 40
0.000000
 41
0.000000
 39
0.000000
  0
VERTEX
  8
TEST
 10
16.569995
 20
-0.760019
 40
0.000000
 41
0.000000
 42
0.000000
  0
VERTEX
  8
TEST
 10
16.569995
 20
0.739978
 40
0.000000
 41
0.000000
 42
0.000000
  0
VERTEX
  8
TEST
 10
17.429988
 20
0.739978
 40
0.000000
 41
0.000000
 42
0.000000
  0
VERTEX
  8
TEST
 10
17.429988
 20
-0.760019
 40
0.000000
 41
0.000000
 42
0.000000
  0
SEQEND
  0
POLYLINE
  8
TEST
 66
1
 70
1
 40
0.000000
 41
0.000000
 39
0.000000
  0
VERTEX
  8
TEST
 10
17.839995
 20
-0.760019
 40
0.000000
 41
0.000000
 42
0.000000
  0
VERTEX
  8
TEST
 10
17.839995
 20
0.739978
 40
0.000000
 41
0.000000
 42
0.000000
  0
VERTEX
  8
TEST
 10
18.699988
 20
0.739978
 40
0.000000
 41
0.000000
 42
0.000000
  0
VERTEX
  8
TEST
 10
18.699988
 20
-0.760019
 40
0.000000
 41
0.000000
 42
0.000000
  0
SEQEND
  0
POLYLINE
  8
TEST
 66
1
 70
1
 40
0.000000
 41
0.000000
 39
0.000000
  0
VERTEX
  8
TEST
 10
19.109995
 20
-0.760019
 40
0.000000
 41
0.000000
 42
0.000000
  0
VERTEX
  8
TEST
 10
19.109995
 20
0.739978
 40
0.000000
 41
0.000000
 42
0.000000
  0
VERTEX
  8
TEST
 10
19.969988
 20
0.739978
 40
0.000000
 41
0.000000
 42
0.000000
  0
VERTEX
  8
TEST
 10
19.969988
 20
-0.760019
 40
0.000000
 41
0.000000
 42
0.000000
  0
SEQEND
  0
POLYLINE
  8
TEST
 66
1
 70
1
 40
0.000000
 41
0.000000
 39
0.000000
  0
VERTEX
  8
TEST
 10
20.379995
 20
-0.760019
 40
0.000000
 41
0.000000
 42
0.000000
  0
VERTEX
  8
TEST
 10
20.379995
 20
0.739978
 40
0.000000
 41
0.000000
 42
0.000000
  0
VERTEX
  8
TEST
 10
21.239988
 20
0.739978
 40
0.000000
 41
0.000000
 42
0.000000
  0
VERTEX
  8
TEST
 10
21.239988
 20
-0.760019
 40
0.000000
 41
0.000000
 42
0.000000
  0
SEQEND
  0
POLYLINE
  8
TEST
 66
1
 70
1
 40
0.000000
 41
0.000000
 39
0.000000
  0
VERTEX
  8
TEST
 10
21.649995
 20
-0.760019
 40
0.000000
 41
0.000000
 42
0.000000
  0
VERTEX
  8
TEST
 10
21.649995
 20
0.739978
 40
0.000000
 41
0.000000
 42
0.000000
  0
VERTEX
  8
TEST
 10
22.509988
 20
0.739978
 40
0.000000
 41
0.000000
 42
0.000000
  0
VERTEX
  8
TEST
 10
22.509988
 20
-0.760019
 40
0.000000
 41
0.000000
 42
0.000000
  0
SEQEND
  0
POLYLINE
  8
TEST
 66
1
 70
1
 40
0.000000
 41
0.000000
 39
0.000000
  0
VERTEX
  8
TEST
 10
22.919995
 20
-0.760019
 40
0.000000
 41
0.000000
 42
0.000000
  0
VERTEX
  8
TEST
 10
22.919995
 20
0.739978
 40
0.000000
 41
0.000000
 42
0.000000
  0
VERTEX
  8
TEST
 10
23.779988
 20
0.739978
 40
0.000000
 41
0.000000
 42
0.000000
  0
VERTEX
  8
TEST
 10
23.779988
 20
-0.760019
 40
0.000000
 41
0.000000
 42
0.000000
  0
SEQEND
  0
POLYLINE
  8
TEST
 66
1
 70
1
 40
0.000000
 41
0.000000
 39
0.000000
  0
VERTEX
  8
TEST
 10
24.189995
 20
-0.760019
 40
0.000000
 41
0.000000
 42
0.000000
  0
VERTEX
  8
TEST
 10
24.189995
 20
0.739978
 40
0.000000
 41
0.000000
 42
0.000000
  0
VERTEX
  8
TEST
 10
25.049988
 20
0.739978
 40
0.000000
 41
0.000000
 42
0.000000
  0
VERTEX
  8
TEST
 10
25.049988
 20
-0.760019
 40
0.000000
 41
0.000000
 42
0.000000
  0
SEQEND
  0
POLYLINE
  8
TEST
 66
1
 70
1
 40
0.000000
 41
0.000000
 39
0.000000
  0
VERTEX
  8
TEST
 10
25.459995
 20
-0.760019
 40
0.000000
 41
0.000000
 42
0.000000
  0
VERTEX
  8
TEST
 10
25.459995
 20
0.739978
 40
0.000000
 41
0.000000
 42
0.000000
  0
VERTEX
  8
TEST
 10
26.319988
 20
0.739978
 40
0.000000
 41
0.000000
 42
0.000000
  0
VERTEX
  8
TEST
 10
26.319988
 20
-0.760019
 40
0.000000
 41
0.000000
 42
0.000000
  0
SEQEND
  0
POLYLINE
  8
TEST
 66
1
 70
1
 40
0.000000
 41
0.000000
 39
0.000000
  0
VERTEX
  8
TEST
 10
26.729995
 20
-0.760019
 40
0.000000
 41
0.000000
 42
0.000000
  0
VERTEX
  8
TEST
 10
26.729995
 20
0.739978
 40
0.000000
 41
0.000000
 42
0.000000
  0
VERTEX
  8
TEST
 10
27.589988
 20
0.739978
 40
0.000000
 41
0.000000
 42
0.000000
  0
VERTEX
  8
TEST
 10
27.589988
 20
-0.760019
 40
0.000000
 41
0.000000
 42
0.000000
  0
SEQEND
  0
POLYLINE
  8
TEST
 66
1
 70
1
 40
0.000000
 41
0.000000
 39
0.000000
  0
VERTEX
  8
TEST
 10
27.999995
 20
-0.760019
 40
0.000000
 41
0.000000
 42
0.000000
  0
VERTEX
  8
TEST
 10
27.999995
 20
0.739978
 40
0.000000
 41
0.000000
 42
0.000000
  0
VERTEX
  8
TEST
 10
28.859988
 20
0.739978
 40
0.000000
 41
0.000000
 42
0.000000
  0
VERTEX
  8
TEST
 10
28.859988
 20
-0.760019
 40
0.000000
 41
0.000000
 42
0.000000
  0
SEQEND
  0
POLYLINE
  8
TEST
 66
1
 70
1
 40
0.000000
 41
0.000000
 39
0.000000
  0
VERTEX
  8
TEST
 10
29.269995
 20
-0.760019
 40
0.000000
 41
0.000000
 42
0.000000
  0
VERTEX
  8
TEST
 10
29.269995
 20
0.739978
 40
0.000000
 41
0.000000
 42
0.000000
  0
VERTEX
  8
TEST
 10
30.129988
 20
0.739978
 40
0.000000
 41
0.000000
 42
0.000000
  0
VERTEX
  8
TEST
 10
30.129988
 20
-0.760019
 40
0.000000
 41
0.000000
 42
0.000000
  0
SEQEND
  0
POLYLINE
  8
TEST
 66
1
 70
1
 40
0.000000
 41
0.000000
 39
0.000000
  0
VERTEX
  8
TEST
 10
30.539995
 20
-0.760019
 40
0.000000
 41
0.000000
 42
0.000000
  0
VERTEX
  8
TEST
 10
30.539995
 20
0.739978
 40
0.000000
 41
0.000000
 42
0.000000
  0
VERTEX
  8
TEST
 10
31.399988
 20
0.739978
 40
0.000000
 41
0.000000
 42
0.000000
  0
VERTEX
  8
TEST
 10
31.399988
 20
-0.760019
 40
0.000000
 41
0.000000
 42
0.000000
  0
SEQEND
  0
POLYLINE
  8
TEST
 66
1
 70
1
 40
0.000000
 41
0.000000
 39
0.000000
  0
VERTEX
  8
TEST
 10
31.809995
 20
-0.760019
 40
0.000000
 41
0.000000
 42
0.000000
  0
VERTEX
  8
TEST
 10
31.809995
 20
0.739978
 40
0.000000
 41
0.000000
 42
0.000000
  0
VERTEX
  8
TEST
 10
32.669988
 20
0.739978
 40
0.000000
 41
0.000000
 42
0.000000
  0
VERTEX
  8
TEST
 10
32.669988
 20
-0.760019
 40
0.000000
 41
0.000000
 42
0.000000
  0
SEQEND
  0
POLYLINE
  8
TEST
 66
1
 70
1
 40
0.000000
 41
0.000000
 39
0.000000
  0
VERTEX
  8
TEST
 10
1.329995
 20
19.239992
 40
0.000000
 41
0.000000
 42
0.000000
  0
VERTEX
  8
TEST
 10
1.329995
 20
20.739989
 40
0.000000
 41
0.000000
 42
0.000000
  0
VERTEX
  8
TEST
 10
2.189988
 20
20.739989
 40
0.000000
 41
0.000000
 42
0.000000
  0
VERTEX
  8
TEST
 10
2.189988
 20
19.239992
 40
0.000000
 41
0.000000
 42
0.000000
  0
SEQEND
  0
POLYLINE
  8
TEST
 66
1
 70
1
 40
0.000000
 41
0.000000
 39
0.000000
  0
VERTEX
  8
TEST
 10
2.599995
 20
19.239992
 40
0.000000
 41
0.000000
 42
0.000000
  0
VERTEX
  8
TEST
 10
2.599995
 20
20.739989
 40
0.000000
 41
0.000000
 42
0.000000
  0
VERTEX
  8
TEST
 10
3.459988
 20
20.739989
 40
0.000000
 41
0.000000
 42
0.000000
  0
VERTEX
  8
TEST
 10
3.459988
 20
19.239992
 40
0.000000
 41
0.000000
 42
0.000000
  0
SEQEND
  0
POLYLINE
  8
TEST
 66
1
 70
1
 40
0.000000
 41
0.000000
 39
0.000000
  0
VERTEX
  8
TEST
 10
3.869995
 20
19.239992
 40
0.000000
 41
0.000000
 42
0.000000
  0
VERTEX
  8
TEST
 10
3.869995
 20
20.739989
 40
0.000000
 41
0.000000
 42
0.000000
  0
VERTEX
  8
TEST
 10
4.729988
 20
20.739989
 40
0.000000
 41
0.000000
 42
0.000000
  0
VERTEX
  8
TEST
 10
4.729988
 20
19.239992
 40
0.000000
 41
0.000000
 42
0.000000
  0
SEQEND
  0
POLYLINE
  8
TEST
 66
1
 70
1
 40
0.000000
 41
0.000000
 39
0.000000
  0
VERTEX
  8
TEST
 10
5.139995
 20
19.239992
 40
0.000000
 41
0.000000
 42
0.000000
  0
VERTEX
  8
TEST
 10
5.139995
 20
20.739989
 40
0.000000
 41
0.000000
 42
0.000000
  0
VERTEX
  8
TEST
 10
5.999988
 20
20.739989
 40
0.000000
 41
0.000000
 42
0.000000
  0
VERTEX
  8
TEST
 10
5.999988
 20
19.239992
 40
0.000000
 41
0.000000
 42
0.000000
  0
SEQEND
  0
POLYLINE
  8
TEST
 66
1
 70
1
 40
0.000000
 41
0.000000
 39
0.000000
  0
VERTEX
  8
TEST
 10
6.409995
 20
19.239992
 40
0.000000
 41
0.000000
 42
0.000000
  0
VERTEX
  8
TEST
 10
6.409995
 20
20.739989
 40
0.000000
 41
0.000000
 42
0.000000
  0
VERTEX
  8
TEST
 10
7.269988
 20
20.739989
 40
0.000000
 41
0.000000
 42
0.000000
  0
VERTEX
  8
TEST
 10
7.269988
 20
19.239992
 40
0.000000
 41
0.000000
 42
0.000000
  0
SEQEND
  0
POLYLINE
  8
TEST
 66
1
 70
1
 40
0.000000
 41
0.000000
 39
0.000000
  0
VERTEX
  8
TEST
 10
7.679995
 20
19.239992
 40
0.000000
 41
0.000000
 42
0.000000
  0
VERTEX
  8
TEST
 10
7.679995
 20
20.739989
 40
0.000000
 41
0.000000
 42
0.000000
  0
VERTEX
  8
TEST
 10
8.539988
 20
20.739989
 40
0.000000
 41
0.000000
 42
0.000000
  0
VERTEX
  8
TEST
 10
8.539988
 20
19.239992
 40
0.000000
 41
0.000000
 42
0.000000
  0
SEQEND
  0
POLYLINE
  8
TEST
 66
1
 70
1
 40
0.000000
 41
0.000000
 39
0.000000
  0
VERTEX
  8
TEST
 10
8.949995
 20
19.239992
 40
0.000000
 41
0.000000
 42
0.000000
  0
VERTEX
  8
TEST
 10
8.949995
 20
20.739989
 40
0.000000
 41
0.000000
 42
0.000000
  0
VERTEX
  8
TEST
 10
9.809988
 20
20.739989
 40
0.000000
 41
0.000000
 42
0.000000
  0
VERTEX
  8
TEST
 10
9.809988
 20
19.239992
 40
0.000000
 41
0.000000
 42
0.000000
  0
SEQEND
  0
POLYLINE
  8
TEST
 66
1
 70
1
 40
0.000000
 41
0.000000
 39
0.000000
  0
VERTEX
  8
TEST
 10
10.219995
 20
19.239992
 40
0.000000
 41
0.000000
 42
0.000000
  0
VERTEX
  8
TEST
 10
10.219995
 20
20.739989
 40
0.000000
 41
0.000000
 42
0.000000
  0
VERTEX
  8
TEST
 10
11.079988
 20
20.739989
 40
0.000000
 41
0.000000
 42
0.000000
  0
VERTEX
  8
TEST
 10
11.079988
 20
19.239992
 40
0.000000
 41
0.000000
 42
0.000000
  0
SEQEND
  0
POLYLINE
  8
TEST
 66
1
 70
1
 40
0.000000
 41
0.000000
 39
0.000000
  0
VERTEX
  8
TEST
 10
11.489995
 20
19.239992
 40
0.000000
 41
0.000000
 42
0.000000
  0
VERTEX
  8
TEST
 10
11.489995
 20
20.739989
 40
0.000000
 41
0.000000
 42
0.000000
  0
VERTEX
  8
TEST
 10
12.349988
 20
20.739989
 40
0.000000
 41
0.000000
 42
0.000000
  0
VERTEX
  8
TEST
 10
12.349988
 20
19.239992
 40
0.000000
 41
0.000000
 42
0.000000
  0
SEQEND
  0
POLYLINE
  8
TEST
 66
1
 70
1
 40
0.000000
 41
0.000000
 39
0.000000
  0
VERTEX
  8
TEST
 10
12.759995
 20
19.239992
 40
0.000000
 41
0.000000
 42
0.000000
  0
VERTEX
  8
TEST
 10
12.759995
 20
20.739989
 40
0.000000
 41
0.000000
 42
0.000000
  0
VERTEX
  8
TEST
 10
13.619988
 20
20.739989
 40
0.000000
 41
0.000000
 42
0.000000
  0
VERTEX
  8
TEST
 10
13.619988
 20
19.239992
 40
0.000000
 41
0.000000
 42
0.000000
  0
SEQEND
  0
POLYLINE
  8
TEST
 66
1
 70
1
 40
0.000000
 41
0.000000
 39
0.000000
  0
VERTEX
  8
TEST
 10
14.029995
 20
19.239992
 40
0.000000
 41
0.000000
 42
0.000000
  0
VERTEX
  8
TEST
 10
14.029995
 20
20.739989
 40
0.000000
 41
0.000000
 42
0.000000
  0
VERTEX
  8
TEST
 10
14.889988
 20
20.739989
 40
0.000000
 41
0.000000
 42
0.000000
  0
VERTEX
  8
TEST
 10
14.889988
 20
19.239992
 40
0.000000
 41
0.000000
 42
0.000000
  0
SEQEND
  0
POLYLINE
  8
TEST
 66
1
 70
1
 40
0.000000
 41
0.000000
 39
0.000000
  0
VERTEX
  8
TEST
 10
15.299995
 20
19.239992
 40
0.000000
 41
0.000000
 42
0.000000
  0
VERTEX
  8
TEST
 10
15.299995
 20
20.739989
 40
0.000000
 41
0.000000
 42
0.000000
  0
VERTEX
  8
TEST
 10
16.159988
 20
20.739989
 40
0.000000
 41
0.000000
 42
0.000000
  0
VERTEX
  8
TEST
 10
16.159988
 20
19.239992
 40
0.000000
 41
0.000000
 42
0.000000
  0
SEQEND
  0
POLYLINE
  8
TEST
 66
1
 70
1
 40
0.000000
 41
0.000000
 39
0.000000
  0
VERTEX
  8
TEST
 10
16.569995
 20
19.239992
 40
0.000000
 41
0.000000
 42
0.000000
  0
VERTEX
  8
TEST
 10
16.569995
 20
20.739989
 40
0.000000
 41
0.000000
 42
0.000000
  0
VERTEX
  8
TEST
 10
17.429988
 20
20.739989
 40
0.000000
 41
0.000000
 42
0.000000
  0
VERTEX
  8
TEST
 10
17.429988
 20
19.239992
 40
0.000000
 41
0.000000
 42
0.000000
  0
SEQEND
  0
POLYLINE
  8
TEST
 66
1
 70
1
 40
0.000000
 41
0.000000
 39
0.000000
  0
VERTEX
  8
TEST
 10
17.839995
 20
19.239992
 40
0.000000
 41
0.000000
 42
0.000000
  0
VERTEX
  8
TEST
 10
17.839995
 20
20.739989
 40
0.000000
 41
0.000000
 42
0.000000
  0
VERTEX
  8
TEST
 10
18.699988
 20
20.739989
 40
0.000000
 41
0.000000
 42
0.000000
  0
VERTEX
  8
TEST
 10
18.699988
 20
19.239992
 40
0.000000
 41
0.000000
 42
0.000000
  0
SEQEND
  0
POLYLINE
  8
TEST
 66
1
 70
1
 40
0.000000
 41
0.000000
 39
0.000000
  0
VERTEX
  8
TEST
 10
19.109995
 20
19.239992
 40
0.000000
 41
0.000000
 42
0.000000
  0
VERTEX
  8
TEST
 10
19.109995
 20
20.739989
 40
0.000000
 41
0.000000
 42
0.000000
  0
VERTEX
  8
TEST
 10
19.969988
 20
20.739989
 40
0.000000
 41
0.000000
 42
0.000000
  0
VERTEX
  8
TEST
 10
19.969988
 20
19.239992
 40
0.000000
 41
0.000000
 42
0.000000
  0
SEQEND
  0
POLYLINE
  8
TEST
 66
1
 70
1
 40
0.000000
 41
0.000000
 39
0.000000
  0
VERTEX
  8
TEST
 10
20.379995
 20
19.239992
 40
0.000000
 41
0.000000
 42
0.000000
  0
VERTEX
  8
TEST
 10
20.379995
 20
20.739989
 40
0.000000
 41
0.000000
 42
0.000000
  0
VERTEX
  8
TEST
 10
21.239988
 20
20.739989
 40
0.000000
 41
0.000000
 42
0.000000
  0
VERTEX
  8
TEST
 10
21.239988
 20
19.239992
 40
0.000000
 41
0.000000
 42
0.000000
  0
SEQEND
  0
POLYLINE
  8
TEST
 66
1
 70
1
 40
0.000000
 41
0.000000
 39
0.000000
  0
VERTEX
  8
TEST
 10
21.649995
 20
19.239992
 40
0.000000
 41
0.000000
 42
0.000000
  0
VERTEX
  8
TEST
 10
21.649995
 20
20.739989
 40
0.000000
 41
0.000000
 42
0.000000
  0
VERTEX
  8
TEST
 10
22.509988
 20
20.739989
 40
0.000000
 41
0.000000
 42
0.000000
  0
VERTEX
  8
TEST
 10
22.509988
 20
19.239992
 40
0.000000
 41
0.000000
 42
0.000000
  0
SEQEND
  0
POLYLINE
  8
TEST
 66
1
 70
1
 40
0.000000
 41
0.000000
 39
0.000000
  0
VERTEX
  8
TEST
 10
22.919995
 20
19.239992
 40
0.000000
 41
0.000000
 42
0.000000
  0
VERTEX
  8
TEST
 10
22.919995
 20
20.739989
 40
0.000000
 41
0.000000
 42
0.000000
  0
VERTEX
  8
TEST
 10
23.779988
 20
20.739989
 40
0.000000
 41
0.000000
 42
0.000000
  0
VERTEX
  8
TEST
 10
23.779988
 20
19.239992
 40
0.000000
 41
0.000000
 42
0.000000
  0
SEQEND
  0
POLYLINE
  8
TEST
 66
1
 70
1
 40
0.000000
 41
0.000000
 39
0.000000
  0
VERTEX
  8
TEST
 10
24.189995
 20
19.239992
 40
0.000000
 41
0.000000
 42
0.000000
  0
VERTEX
  8
TEST
 10
24.189995
 20
20.739989
 40
0.000000
 41
0.000000
 42
0.000000
  0
VERTEX
  8
TEST
 10
25.049988
 20
20.739989
 40
0.000000
 41
0.000000
 42
0.000000
  0
VERTEX
  8
TEST
 10
25.049988
 20
19.239992
 40
0.000000
 41
0.000000
 42
0.000000
  0
SEQEND
  0
POLYLINE
  8
TEST
 66
1
 70
1
 40
0.000000
 41
0.000000
 39
0.000000
  0
VERTEX
  8
TEST
 10
25.459995
 20
19.239992
 40
0.000000
 41
0.000000
 42
0.000000
  0
VERTEX
  8
TEST
 10
25.459995
 20
20.739989
 40
0.000000
 41
0.000000
 42
0.000000
  0
VERTEX
  8
TEST
 10
26.319988
 20
20.739989
 40
0.000000
 41
0.000000
 42
0.000000
  0
VERTEX
  8
TEST
 10
26.319988
 20
19.239992
 40
0.000000
 41
0.000000
 42
0.000000
  0
SEQEND
  0
POLYLINE
  8
TEST
 66
1
 70
1
 40
0.000000
 41
0.000000
 39
0.000000
  0
VERTEX
  8
TEST
 10
26.729995
 20
19.239992
 40
0.000000
 41
0.000000
 42
0.000000
  0
VERTEX
  8
TEST
 10
26.729995
 20
20.739989
 40
0.000000
 41
0.000000
 42
0.000000
  0
VERTEX
  8
TEST
 10
27.589988
 20
20.739989
 40
0.000000
 41
0.000000
 42
0.000000
  0
VERTEX
  8
TEST
 10
27.589988
 20
19.239992
 40
0.000000
 41
0.000000
 42
0.000000
  0
SEQEND
  0
POLYLINE
  8
TEST
 66
1
 70
1
 40
0.000000
 41
0.000000
 39
0.000000
  0
VERTEX
  8
TEST
 10
27.999995
 20
19.239992
 40
0.000000
 41
0.000000
 42
0.000000
  0
VERTEX
  8
TEST
 10
27.999995
 20
20.739989
 40
0.000000
 41
0.000000
 42
0.000000
  0
VERTEX
  8
TEST
 10
28.859988
 20
20.739989
 40
0.000000
 41
0.000000
 42
0.000000
  0
VERTEX
  8
TEST
 10
28.859988
 20
19.239992
 40
0.000000
 41
0.000000
 42
0.000000
  0
SEQEND
  0
POLYLINE
  8
TEST
 66
1
 70
1
 40
0.000000
 41
0.000000
 39
0.000000
  0
VERTEX
  8
TEST
 10
29.269995
 20
19.239992
 40
0.000000
 41
0.000000
 42
0.000000
  0
VERTEX
  8
TEST
 10
29.269995
 20
20.739989
 40
0.000000
 41
0.000000
 42
0.000000
  0
VERTEX
  8
TEST
 10
30.129988
 20
20.739989
 40
0.000000
 41
0.000000
 42
0.000000
  0
VERTEX
  8
TEST
 10
30.129988
 20
19.239992
 40
0.000000
 41
0.000000
 42
0.000000
  0
SEQEND
  0
POLYLINE
  8
TEST
 66
1
 70
1
 40
0.000000
 41
0.000000
 39
0.000000
  0
VERTEX
  8
TEST
 10
30.539995
 20
19.239992
 40
0.000000
 41
0.000000
 42
0.000000
  0
VERTEX
  8
TEST
 10
30.539995
 20
20.739989
 40
0.000000
 41
0.000000
 42
0.000000
  0
VERTEX
  8
TEST
 10
31.399988
 20
20.739989
 40
0.000000
 41
0.000000
 42
0.000000
  0
VERTEX
  8
TEST
 10
31.399988
 20
19.239992
 40
0.000000
 41
0.000000
 42
0.000000
  0
SEQEND
  0
POLYLINE
  8
TEST
 66
1
 70
1
 40
0.000000
 41
0.000000
 39
0.000000
  0
VERTEX
  8
TEST
 10
31.809995
 20
19.239992
 40
0.000000
 41
0.000000
 42
0.000000
  0
VERTEX
  8
TEST
 10
31.809995
 20
20.739989
 40
0.000000
 41
0.000000
 42
0.000000
  0
VERTEX
  8
TEST
 10
32.669988
 20
20.739989
 40
0.000000
 41
0.000000
 42
0.000000
  0
VERTEX
  8
TEST
 10
32.669988
 20
19.239992
 40
0.000000
 41
0.000000
 42
0.000000
  0
SEQEND
  0
POLYLINE
  8
TEST
 66
1
 70
1
 40
0.000000
 41
0.000000
 39
0.000000
  0
VERTEX
  8
TEST
 10
3.925621
 20
19.072187
 40
0.000000
 41
0.000000
 42
0.000000
  0
VERTEX
  8
TEST
 10
4.925619
 20
19.072187
 40
0.000000
 41
0.000000
 42
0.000000
  0
VERTEX
  8
TEST
 10
4.925619
 20
16.772191
 40
0.000000
 41
0.000000
 42
0.000000
  0
VERTEX
  8
TEST
 10
3.925621
 20
16.772191
 40
0.000000
 41
0.000000
 42
0.000000
  0
SEQEND
  0
POLYLINE
  8
TEST
 66
1
 70
1
 40
0.000000
 41
0.000000
 39
0.000000
  0
VERTEX
  8
TEST
 10
1.025601
 20
19.072187
 40
0.000000
 41
0.000000
 42
0.000000
  0
VERTEX
  8
TEST
 10
2.025599
 20
19.072187
 40
0.000000
 41
0.000000
 42
0.000000
  0
VERTEX
  8
TEST
 10
2.025599
 20
16.772191
 40
0.000000
 41
0.000000
 42
0.000000
  0
VERTEX
  8
TEST
 10
1.025601
 20
16.772191
 40
0.000000
 41
0.000000
 42
0.000000
  0
SEQEND
  0
POLYLINE
  8
TEST
 66
1
 70
1
 40
0.000000
 41
0.000000
 39
0.000000
  0
VERTEX
  8
TEST
 10
2.475611
 20
16.772179
 40
0.000000
 41
0.000000
 42
0.000000
  0
VERTEX
  8
TEST
 10
3.475609
 20
16.772179
 40
0.000000
 41
0.000000
 42
0.000000
  0
VERTEX
  8
TEST
 10
3.475609
 20
15.772181
 40
0.000000
 41
0.000000
 42
0.000000
  0
VERTEX
  8
TEST
 10
2.475611
 20
15.772181
 40
0.000000
 41
0.000000
 42
0.000000
  0
SEQEND
  0
POLYLINE
  8
TEST
 66
1
 70
0
 40
0.000000
 41
0.000000
 39
0.000000
  0
VERTEX
  8
TEST
 10
4.475607
 20
16.722090
 40
0.150012
 41
0.150012
 42
0.000000
  0
VERTEX
  8
TEST
 10
4.475607
 20
16.422091
 40
0.150012
 41
0.150012
 42
0.000000
  0
VERTEX
  8
TEST
 10
3.575609
 20
16.422091
 40
0.150012
 41
0.150012
 42
0.000000
  0
SEQEND
  0
POLYLINE
  8
TEST
 66
1
 70
0
 40
0.000000
 41
0.000000
 39
0.000000
  0
VERTEX
  8
TEST
 10
1.475511
 20
16.722090
 40
0.150012
 41
0.150012
 42
0.000000
  0
VERTEX
  8
TEST
 10
1.475511
 20
16.422091
 40
0.150012
 41
0.150012
 42
0.000000
  0
VERTEX
  8
TEST
 10
2.375510
 20
16.422091
 40
0.150012
 41
0.150012
 42
0.000000
  0
SEQEND
  0
POLYLINE
  8
TEST
 66
1
 70
0
 40
0.000000
 41
0.000000
 39
0.000000
  0
VERTEX
  8
TEST
 10
4.475607
 20
19.122288
 40
0.150012
 41
0.150012
 42
0.000000
  0
VERTEX
  8
TEST
 10
4.475607
 20
19.422288
 40
0.150012
 41
0.150012
 42
0.000000
  0
VERTEX
  8
TEST
 10
3.575609
 20
19.422288
 40
0.150012
 41
0.150012
 42
0.000000
  0
VERTEX
  8
TEST
 10
3.575609
 20
19.722313
 40
0.150012
 41
0.150012
 42
0.000000
  0
VERTEX
  8
TEST
 10
2.375510
 20
19.722313
 40
0.150012
 41
0.150012
 42
0.000000
  0
VERTEX
  8
TEST
 10
2.375510
 20
19.422288
 40
0.150012
 41
0.150012
 42
0.000000
  0
VERTEX
  8
TEST
 10
1.475511
 20
19.422288
 40
0.150012
 41
0.150012
 42
0.000000
  0
VERTEX
  8
TEST
 10
1.475511
 20
19.122288
 40
0.150012
 41
0.150012
 42
0.000000
  0
SEQEND
  0
POLYLINE
  8
TEST
 66
1
 70
1
 40
0.000000
 41
0.000000
 39
0.000000
  0
VERTEX
  8
TEST
 10
30.999989
 20
1.250010
 40
0.000000
 41
0.000000
 42
0.000000
  0
VERTEX
  8
TEST
 10
32.500011
 20
1.250010
 40
0.000000
 41
0.000000
 42
0.000000
  0
VERTEX
  8
TEST
 10
32.500011
 20
1.650009
 40
0.000000
 41
0.000000
 42
0.000000
  0
VERTEX
  8
TEST
 10
30.999989
 20
1.650009
 40
0.000000
 41
0.000000
 42
0.000000
  0
SEQEND
  0
POLYLINE
  8
TEST
 66
1
 70
1
 40
0.000000
 41
0.000000
 39
0.000000
  0
VERTEX
  8
TEST
 10
0.000000
 20
0.000000
 40
0.000000
 41
0.000000
 42
0.000000
  0
VERTEX
  8
TEST
 10
34.000008
 20
0.000000
 40
0.000000
 41
0.000000
 42
0.000000
  0
VERTEX
  8
TEST
 10
34.000008
 20
20.000011
 40
0.000000
 41
0.000000
 42
0.000000
  0
VERTEX
  8
TEST
 10
0.000000
 20
20.000011
 40
0.000000
 41
0.000000
 42
0.000000
  0
SEQEND
  0
POLYLINE
  8
TEST
 66
1
 70
1
 40
0.000000
 41
0.000000
 39
0.000000
  0
VERTEX
  8
TEST
 10
12.846507
 20
12.388698
 40
0.000000
 41
0.000000
 42
0.000000
  0
VERTEX
  8
TEST
 10
12.846507
 20
6.348197
 40
0.000000
 41
0.000000
 42
0.000000
  0
VERTEX
  8
TEST
 10
18.805296
 20
6.348197
 40
0.000000
 41
0.000000
 42
0.000000
  0
VERTEX
  8
TEST
 10
18.805296
 20
12.388698
 40
0.000000
 41
0.000000
 42
0.000000
  0
SEQEND
  0
POLYLINE
  8
TEST
 66
1
 70
1
 40
0.000000
 41
0.000000
 39
0.000000
  0
VERTEX
  8
TEST
 10
1.199998
 20
1.199998
 40
0.000000
 41
0.000000
 42
0.000000
  0
VERTEX
  8
TEST
 10
1.199998
 20
15.299995
 40
0.000000
 41
0.000000
 42
0.000000
  0
VERTEX
  8
TEST
 10
4.999990
 20
15.299995
 40
0.000000
 41
0.000000
 42
0.000000
  0
VERTEX
  8
TEST
 10
4.999990
 20
18.799988
 40
0.000000
 41
0.000000
 42
0.000000
  0
VERTEX
  8
TEST
 10
34.000008
 20
18.799988
 40
0.000000
 41
0.000000
 42
0.000000
  0
VERTEX
  8
TEST
 10
34.000008
 20
1.199998
 40
0.000000
 41
0.000000
 42
0.000000
  0
SEQEND
  0
POLYLINE
  8
TEST
 66
1
 70
1
 40
0.000000
 41
0.000000
 39
0.000000
  0
VERTEX
  8
TEST
 10
33.500009
 20
1.699997
 40
0.000000
 41
0.000000
 42
0.000000
  0
VERTEX
  8
TEST
 10
1.699997
 20
1.699997
 40
0.000000
 41
0.000000
 42
0.000000
  0
VERTEX
  8
TEST
 10
1.699997
 20
14.799996
 40
0.000000
 41
0.000000
 42
0.000000
  0
VERTEX
  8
TEST
 10
5.499989
 20
14.799996
 40
0.000000
 41
0.000000
 42
0.000000
  0
VERTEX
  8
TEST
 10
5.499989
 20
18.299989
 40
0.000000
 41
0.000000
 42
0.000000
  0
VERTEX
  8
TEST
 10
33.500009
 20
18.299989
 40
0.000000
 41
0.000000
 42
0.000000
  0
SEQEND
  0
ENDSEC
  0
EOF
